<?xml version="1.0" encoding="iso-8859-1"?>
<!-- Generator: Adobe Illustrator 19.0.0, SVG Export Plug-In . SVG Version: 6.00 Build 0)  -->
<svg version="1.1" id="Capa_1" xmlns="http://www.w3.org/2000/svg" xmlns:xlink="http://www.w3.org/1999/xlink" x="0px" y="0px"
	 viewBox="0 0 512 512" style="enable-background:new 0 0 512 512;" xml:space="preserve">
<path style="fill:#E5E1DA;" d="M93.838,86.58c-0.727,5.85-44.774,360.49-45.7,367.944c-0.946,7.615,4.461,14.556,12.076,15.501
	c12.962,1.61,250.725,31.141,276.666,34.363c7.615,0.946,14.555-4.46,15.501-12.076c2.267-18.252,43.388-349.327,45.7-367.944
	c0.946-7.615-4.46-14.555-12.076-15.501l-15.559-1.932c-21.865-2.716-249.512-30.991-261.107-32.431
	C101.723,73.558,94.784,78.964,93.838,86.58z"/>
<path style="fill:#DBD7D1;" d="M77.456,462.576c0.945-7.607,45.897-369.529,46.638-375.499c0.524-4.221,2.862-7.766,6.126-9.981
	c-11.44-1.421-19.003-2.36-20.882-2.593c-7.614-0.946-14.555,4.46-15.501,12.076c-0.727,5.85-44.774,360.49-45.7,367.944
	c-0.946,7.615,4.46,14.556,12.076,15.501c1.956,0.243,9.037,1.122,19.731,2.451C77.987,469.696,77.004,466.217,77.456,462.576z"/>
<path style="fill:#F9F6ED;" d="M401.443,68.855c-8.922,1.108-269.935,33.527-276.666,34.363
	c-7.615,0.946-13.022,7.885-12.076,15.501c2.312,18.617,43.433,349.693,45.7,367.944c0.946,7.615,7.885,13.022,15.501,12.076
	c12.955-1.609,250.74-31.143,276.666-34.363c7.615-0.946,13.022-7.885,12.076-15.501c-4.326-34.831-40.699-327.677-45.7-367.944
	C415.999,73.316,409.059,67.91,401.443,68.855z"/>
<path style="fill:#EFECE4;" d="M188.172,484.781c-2.289-18.429-43.809-352.72-46.144-371.519c-0.636-5.12,1.582-9.928,5.399-12.858
	c-13.153,1.633-21.515,2.672-22.649,2.813c-7.615,0.946-13.022,7.885-12.076,15.501c2.312,18.617,43.433,349.692,45.7,367.944
	c0.946,7.615,7.885,13.022,15.501,12.076c2.128-0.264,10.324-1.282,22.649-2.813C192.135,494.019,188.808,489.901,188.172,484.781z"
	/>
<path style="fill:#92B620;" d="M267.552,333.416l-33.226-30.026c-5.142-4.647-6.248-12.492-2.192-18.111
	c4.795-6.643,14.128-7.496,20.034-2.158l22.266,20.122l41.257-57.605c4.341-6.062,12.776-7.456,18.837-3.115
	c6.062,4.342,7.456,12.775,3.115,18.837l-50.064,69.901C282.893,337.806,273.533,338.822,267.552,333.416z"/>
<path d="M323.816,232.779c-5.534,0.916-10.382,3.932-13.647,8.491l-36.364,50.773l-16.032-14.488
	c-4.422-3.997-10.36-5.93-16.294-5.303c-5.928,0.627-11.342,3.775-14.851,8.636c-6.258,8.672-4.863,20.738,3.245,28.065
	l33.225,30.026c3.879,3.507,8.921,5.424,14.064,5.424c0.734,0,1.473-0.039,2.209-0.118c0.133-0.014,0.266-0.028,0.397-0.045
	c5.801-0.722,11.08-3.859,14.485-8.612l50.063-69.901c6.742-9.415,4.568-22.56-4.846-29.303
	C334.91,233.157,329.35,231.866,323.816,232.779z M332.12,256.992l-50.064,69.901c-0.974,1.359-2.484,2.257-4.145,2.462
	c-0.013,0.001-0.078,0.008-0.092,0.01c-1.7,0.186-3.397-0.369-4.664-1.514l-33.226-30.026c-2.385-2.155-2.885-5.737-1.14-8.156
	c1.032-1.43,2.546-2.316,4.265-2.498c0.22-0.023,0.438-0.035,0.655-0.035c1.483,0,2.885,0.539,4.003,1.55l22.267,20.122
	c1.585,1.433,3.701,2.117,5.831,1.893c2.124-0.229,4.051-1.353,5.295-3.09l41.257-57.605c0.933-1.304,2.317-2.165,3.898-2.426
	c1.58-0.267,3.17,0.108,4.472,1.041C333.427,250.546,334.047,254.302,332.12,256.992z"/>
<path d="M425.561,145.681c-4.11,0.51-7.028,4.256-6.518,8.366c38.213,313.326,38.528,296.496,35.433,300.47
	c-2.815,3.613-5.186,1.958-29.818,5.591c-4.11,0.51-7.028,4.256-6.518,8.367c0.471,3.797,3.703,6.576,7.433,6.576
	c0.871,0-0.253,0.069,26.494-3.233c11.733-1.454,20.054-12.132,18.595-23.868l-36.734-295.753
	C433.419,148.087,429.675,145.167,425.561,145.681z"/>
<path d="M59.932,477.467l91.826,11.406c2.07,11.162,12.428,18.702,23.645,17.309l57.859-7.186
	c109.292,13.517,103.545,13.002,106.016,13.002c10.491,0,19.828-7.797,21.188-18.761l1.266-10.198l30.039-3.731
	c4.11-0.51,7.028-4.256,6.518-8.367s-4.257-7.035-8.367-6.518c-34.519,4.287-165.637,20.572-216.367,26.873
	c-3.507,0.435-6.697-2.049-7.132-5.558c-47.873-391.12-47.497-368.686-44.398-372.662c3.042-3.907,2.121-1.488,95.726-13.777v30.928
	c0,17.646,14.356,32.002,32.002,32.002c17.645,0,32.002-14.356,32.002-32.002V91.351C407.261,76.438,403.705,74.52,407.661,77.599
	c3.664,2.856,1.762,4.001,7.067,41.712c0.51,4.111,4.249,7.025,8.367,6.518c4.11-0.51,7.028-4.256,6.518-8.367l-4.651-37.455
	c-1.458-11.748-12.158-20.059-23.868-18.594l-94.841,11.78V44.252c0-24.4-19.852-44.252-44.252-44.252
	c-24.4,0-44.252,19.852-44.252,44.252v36.079l-106.843-13.27c-11.673-1.464-22.405,6.811-23.869,18.594L50.448,380.25
	c-0.511,4.111,2.408,7.857,6.519,8.367c4.116,0.508,7.856-2.408,8.367-6.518l36.59-294.595c0.435-3.504,3.623-5.994,7.133-5.558
	l63.352,7.868c-49.274,6.417-48.997,5.393-54.054,7.637c-8.272,3.672-13.726,12.504-12.524,22.191l33.65,270.917l10.303,82.951
	l-88.006-10.931c-3.506-0.436-5.992-3.626-5.556-7.133l4.795-38.612c0.51-4.111-2.408-7.857-6.519-8.367
	c-4.118-0.514-7.856,2.408-8.367,6.518l-4.795,38.612C39.881,465.332,48.196,476.012,59.932,477.467z M343.164,495.643
	c-3.688,2.873-3.606,0.801-49.05-4.205l52.266-6.491C345.437,489.817,346.353,493.159,343.164,495.643z M266.751,130.228
	c0,9.374-7.626,17.001-17.001,17.001c-9.374,0-17.001-7.626-17.001-17.001V97.437l9.501-1.18v34.279c0,4.143,3.358,7.5,7.5,7.5
	c4.142,0,7.5-3.357,7.5-7.5V94.394l9.501-1.18V130.228z M266.751,78.098l-9.501,1.18V44.717c0-2.619,2.131-4.75,4.75-4.75
	c2.619,0,4.75,2.131,4.75,4.75V78.098z M232.749,44.252c0-16.13,13.123-29.252,29.252-29.252c16.13,0,29.252,13.122,29.252,29.252
	v30.803l-9.5,1.18V44.717c0-10.892-8.859-19.751-19.751-19.751c-10.891,0-19.751,8.859-19.751,19.751v36.424l-8.989,1.116
	l-0.511-0.063V44.252z"/>
<g>
</g>
<g>
</g>
<g>
</g>
<g>
</g>
<g>
</g>
<g>
</g>
<g>
</g>
<g>
</g>
<g>
</g>
<g>
</g>
<g>
</g>
<g>
</g>
<g>
</g>
<g>
</g>
<g>
</g>
</svg>
